<svg width="69" height="74" viewBox="0 0 69 74" fill="none" xmlns="http://www.w3.org/2000/svg">
<g clip-path="url(#clip0)">
<path d="M34.3937 0.376709L0.22876 12.4237L5.62774 57.2726L34.4299 73.1336L63.3807 57.0577L68.7776 12.2103L34.3937 0.376709Z" fill="#B3B3B3"/>
<path d="M65.3699 14.8022L34.314 4.19116V69.3441L60.3402 54.9119L65.3696 14.8022H65.3699Z" fill="#A6120D"/>
<path d="M4.06274 14.9936L8.68925 55.1038L34.3136 69.3442V4.19019L4.06301 14.9933L4.06274 14.9936Z" fill="#DD1B16"/>
<path d="M42.8629 38.8754L34.3141 42.8809H25.304L21.0685 53.4955L13.1907 53.6413L34.3141 6.55737L42.8629 38.8757V38.8754ZM42.0365 36.8589L34.371 21.6538L28.0831 36.5972H34.3139L42.0365 36.8591V36.8589Z" fill="#F2F2F2"/>
<path d="M34.3137 6.55688L34.3703 21.6536L41.5048 36.6086H34.3299L34.3137 42.8709L44.2352 42.8804L48.8722 53.6427L56.4102 53.7826L34.3137 6.55688Z" fill="#B3B3B3"/>
</g>
<defs>
<clipPath id="clip0">
<rect width="69" height="72.9268" fill="white" transform="translate(0 0.284668)"/>
</clipPath>
</defs>
</svg>
