<svg width="33" height="32" viewBox="0 0 33 32" fill="none" xmlns="http://www.w3.org/2000/svg">
<path d="M16.5 0C7.66288 0 0.5 7.16288 0.5 16C0.5 24.8371 7.66288 32 16.5 32C25.3371 32 32.5 24.8371 32.5 16C32.5 7.16288 25.3371 0 16.5 0ZM3.93808 16.1664L16.3336 28.5619C9.52656 28.4736 4.0264 22.9734 3.93808 16.1664ZM19.3122 28.2483L4.25168 13.1878C5.52912 7.6032 10.5275 3.43552 16.5 3.43552C20.6741 3.43552 24.3733 5.472 26.6581 8.60544L24.9186 10.1402C23.0651 7.48288 19.9854 5.74336 16.5 5.74336C12.0622 5.74336 8.2824 8.56192 6.85392 12.5069L19.9931 25.6448C23.1842 24.489 25.6379 21.7958 26.4597 18.4602H21.0146V16H29.0658C29.0645 21.9725 24.8968 26.9709 19.3122 28.2483Z" fill="#744C9E"/>
</svg>
