<svg width="70" height="70" viewBox="0 0 70 70" fill="none" xmlns="http://www.w3.org/2000/svg">
<path d="M0 0H70V70H0V0Z" fill="#F7DF1E"/>
<path d="M18.4055 58.4972L23.7622 55.2553C24.7958 57.0876 25.7359 58.638 27.9909 58.638C30.1524 58.638 31.5155 57.7925 31.5155 54.5036V32.137H38.0936V54.5966C38.0936 61.4098 34.0998 64.5112 28.2728 64.5112C23.0105 64.5112 19.9559 61.7858 18.4053 58.4966L18.4055 58.4972ZM41.6666 57.7923L47.0227 54.6912C48.4328 56.9938 50.2654 58.6853 53.5073 58.6853C56.2332 58.6853 57.9711 57.3225 57.9711 55.4429C57.9711 53.1876 56.1856 52.3886 53.1783 51.0734L51.5341 50.3679C46.7881 48.348 43.64 45.8105 43.64 40.4539C43.64 35.52 47.3989 31.7607 53.2727 31.7607C57.4546 31.7607 60.4619 33.2176 62.6231 37.0236L57.5011 40.313C56.3732 38.2926 55.152 37.4939 53.2724 37.4939C51.3457 37.4939 50.124 38.7156 50.124 40.313C50.124 42.2864 51.3457 43.0857 54.1649 44.3074L55.8093 45.0121C61.4011 47.4087 64.5492 49.8519 64.5492 55.3491C64.5492 61.2701 59.8975 64.512 53.6481 64.512C47.5398 64.512 43.5927 61.5988 41.6663 57.7925" fill="black"/>
</svg>
