<svg width="109" height="31" viewBox="0 0 109 31" fill="none" xmlns="http://www.w3.org/2000/svg">
<path fill-rule="evenodd" clip-rule="evenodd" d="M101.488 12.8384C101.39 12.8579 101.291 13.0734 101.291 13.1908C101.272 13.9746 101.252 16.0512 101.252 17.4617C101.252 17.501 101.311 17.5794 101.37 17.5794C101.665 17.5989 102.372 17.6184 102.981 17.6184C103.826 17.6184 104.317 17.501 104.592 17.3836C105.299 17.0308 105.633 16.2667 105.633 15.4241C105.633 13.5241 104.297 12.7991 102.313 12.7991C102.175 12.7796 101.783 12.7796 101.488 12.8384ZM106.557 21.5956C106.557 19.656 105.122 18.5784 102.529 18.5784C102.411 18.5784 101.586 18.5589 101.39 18.598C101.331 18.6177 101.252 18.657 101.252 18.7158C101.252 20.1065 101.232 22.3206 101.291 23.1825C101.331 23.5546 101.606 24.0837 101.94 24.2404C102.293 24.4363 103.099 24.4754 103.649 24.4754C105.201 24.4754 106.557 23.6135 106.557 21.5956ZM97.4802 11.761C97.6765 11.761 98.2658 11.8195 99.7786 11.8195C101.213 11.8195 102.352 11.7805 103.747 11.7805C105.456 11.7805 107.814 12.3877 107.814 14.9346C107.814 16.1884 106.93 17.1877 105.771 17.6774C105.712 17.697 105.712 17.736 105.771 17.7556C107.421 18.1672 108.875 19.1858 108.875 21.1056C108.875 22.9865 107.696 24.1816 105.987 24.9261C104.945 25.3766 103.649 25.5332 102.333 25.5332C101.331 25.5332 98.6392 25.4158 97.1462 25.4551C96.9891 25.3961 97.2837 24.6909 97.421 24.5735C97.7749 24.5537 98.0497 24.5342 98.4231 24.4166C98.9536 24.2796 99.0124 24.1227 99.0909 23.3196C99.1303 22.6339 99.1303 20.2044 99.1303 18.4806C99.1303 16.1101 99.1501 14.5036 99.1303 13.72C99.1108 13.1129 98.8947 12.9167 98.4625 12.7991C98.1283 12.7405 97.5784 12.6619 97.1264 12.6033C97.028 12.5053 97.3621 11.8391 97.4802 11.761ZM86.1442 23.9465C86.616 24.3185 87.5393 24.4752 88.3645 24.4752C89.4253 24.4752 90.4861 24.2796 91.5078 23.3585C92.549 22.4184 93.2759 20.9687 93.2759 18.657C93.2759 16.4429 92.4311 14.6405 90.7022 13.5829C89.7199 12.9753 88.4626 12.721 87.0088 12.721C86.5766 12.721 86.164 12.7405 85.9088 12.8579C85.8496 12.8972 85.7123 13.0734 85.7123 13.1712C85.6729 13.5631 85.6729 16.5801 85.6729 18.3434C85.6729 20.1653 85.6729 22.7123 85.7123 23.0061C85.7123 23.3001 85.8496 23.7506 86.1445 23.9465H86.1442ZM81.6846 11.7607C82.058 11.7607 83.4921 11.8195 84.1797 11.8195C85.4177 11.8195 86.3016 11.761 88.6393 11.761C90.6039 11.761 92.2542 12.2898 93.433 13.2888C94.867 14.5231 95.6138 16.2277 95.6138 18.3041C95.6138 21.2625 94.2581 22.967 92.9024 23.9465C91.5472 24.9456 89.7789 25.5332 87.2643 25.5332C85.9284 25.5332 83.6298 25.4942 81.724 25.4744H81.7044C81.6063 25.2982 81.8615 24.6125 82.0186 24.593C82.5296 24.5342 82.6671 24.5144 82.9226 24.4168C83.3349 24.2599 83.4137 24.0444 83.4727 23.3196C83.5314 21.9677 83.5119 20.3418 83.5119 18.5001C83.5119 17.1877 83.5314 14.621 83.4921 13.7981C83.4333 13.1126 83.1387 12.9362 82.5492 12.8186C82.2545 12.76 81.8615 12.6815 81.3116 12.6229C81.2329 12.4855 81.5865 11.8784 81.6846 11.761V11.7607Z" fill="#B1B1B1"/>
<path fill-rule="evenodd" clip-rule="evenodd" d="M57.9131 24.7103C57.422 24.6515 57.0684 24.5734 56.6362 24.3774C56.5772 24.3381 56.4789 24.1424 56.4789 24.0638C56.4397 23.3781 56.4397 21.4191 56.4397 20.1066C56.4397 19.0486 56.263 18.1278 55.811 17.4814C55.2805 16.7367 54.5145 16.3059 53.532 16.3059C52.6677 16.3059 51.5085 16.8935 50.5458 17.7164C50.5262 17.7359 50.3691 17.8733 50.3887 17.6576C50.3887 17.4421 50.4281 17.0112 50.4477 16.7171C50.4675 16.4428 50.3102 16.3059 50.3102 16.3059C49.6815 16.6193 47.9134 17.0307 47.265 17.0893C46.7936 17.1876 46.6757 17.6381 47.167 17.7947H47.1866C47.7167 17.9514 48.0705 18.1278 48.3454 18.3043C48.5419 18.4609 48.5223 18.6764 48.5223 18.8528C48.5419 20.3219 48.5419 22.575 48.4831 23.8093C48.4635 24.2991 48.326 24.4753 47.9722 24.5536L48.0116 24.5341C47.7365 24.5929 47.5204 24.6515 47.1864 24.6908C47.0685 24.8084 47.0685 25.4353 47.1864 25.5724C47.4025 25.5724 48.5419 25.5136 49.4852 25.5136C50.7817 25.5136 51.4497 25.5724 51.7836 25.5724C51.9211 25.4158 51.9605 24.8279 51.8819 24.6908C51.5085 24.6712 51.2335 24.6322 50.9782 24.5536C50.6246 24.4751 50.5262 24.2991 50.5064 23.8876C50.4675 22.8491 50.4675 20.655 50.4675 19.1662C50.4675 18.7547 50.5852 18.5588 50.7029 18.4412C51.1549 18.0495 51.8819 17.7752 52.5302 17.7752C53.1588 17.7752 53.5712 17.9712 53.8856 18.2259C54.3178 18.5783 54.4553 19.0878 54.5143 19.46C54.6124 20.3024 54.5733 21.9676 54.5733 23.4174C54.5733 24.201 54.5143 24.3969 54.2199 24.4948C54.0821 24.5536 53.7285 24.6322 53.3159 24.671C53.1784 24.8084 53.2178 25.4158 53.3159 25.5529C53.8856 25.5529 54.5537 25.4941 55.536 25.4941C56.7539 25.4941 57.5399 25.5529 57.8543 25.5529C57.9523 25.4353 57.9917 24.8672 57.9131 24.7103ZM63.355 17.2269C62.314 17.2269 61.6655 18.03 61.6655 19.2836C61.6655 20.5571 62.2352 22.0264 63.8461 22.0264C64.1212 22.0264 64.6321 21.9088 64.8676 21.6345C65.241 21.2821 65.4965 20.5767 65.4965 19.8321C65.4965 18.2062 64.6909 17.2266 63.355 17.2266V17.2269ZM63.2175 25.8858C62.8247 25.8858 62.5494 26.0034 62.3727 26.1015C61.5476 26.6301 61.1744 27.1396 61.1744 27.7472C61.1744 28.3151 61.3904 28.7656 61.862 29.1575C62.4317 29.6472 63.2175 29.8825 64.2193 29.8825C66.2233 29.8825 67.1074 28.8048 67.1074 27.7472C67.1074 27.0025 66.734 26.5127 65.968 26.2386C65.4179 26.0034 64.416 25.8858 63.2175 25.8858ZM63.355 30.9796C62.1566 30.9796 61.2921 30.7249 60.5457 30.1567C59.8187 29.6082 59.5045 28.7853 59.5045 28.2172C59.5045 28.0605 59.5438 27.6294 59.8974 27.2377C60.1133 27.0025 60.5851 26.552 61.7049 25.7879C61.7441 25.7684 61.7636 25.7488 61.7636 25.7094C61.7636 25.6703 61.7243 25.631 61.6851 25.6117C60.7618 25.2591 60.4867 24.6908 60.408 24.3774V24.3381C60.3886 24.2205 60.3492 24.1031 60.5261 23.9855C60.6636 23.8876 60.8601 23.77 61.076 23.6331C61.41 23.4369 61.7636 23.2215 61.9797 23.045C62.0191 23.006 62.0191 22.9669 62.0191 22.9276C62.0191 22.8884 61.9797 22.8491 61.9403 22.8298C60.5655 22.3791 59.8779 21.3603 59.8779 19.8321C59.8779 18.8331 60.3296 17.9319 61.135 17.3638C61.6851 16.9328 63.0604 16.4038 63.9641 16.4038H64.023C64.9464 16.4233 65.4571 16.6193 66.1839 16.874C66.5769 17.0112 66.9503 17.0697 67.4612 17.0697C68.2272 17.0697 68.5612 16.8347 68.8361 16.5607C68.8559 16.5997 68.8953 16.6978 68.9148 16.9524C68.9344 17.2071 68.8559 17.5793 68.6594 17.8535C68.5023 18.069 68.1486 18.2259 67.795 18.2259H67.6967C67.3431 18.1866 67.1857 18.1474 67.1857 18.1474L67.1074 18.1866C67.0878 18.2259 67.1074 18.265 67.127 18.3238L67.1468 18.3631C67.186 18.5393 67.2645 19.0681 67.2645 19.2055C67.2645 20.8119 66.6163 21.5169 65.9286 22.046C65.2606 22.5357 64.4946 22.8491 63.6301 22.9276C63.6105 22.9276 63.5321 22.9276 63.355 22.9472C63.2569 22.9472 63.1193 22.9669 63.0995 22.9669H63.0799C62.9228 23.006 62.53 23.2019 62.53 23.5348C62.53 23.8286 62.7067 24.1815 63.5515 24.2403C63.7282 24.2598 63.9049 24.2598 64.1016 24.2795C65.2214 24.3577 66.6163 24.4557 67.2645 24.6712C68.1682 25.0041 68.7379 25.8074 68.7379 26.7674C68.7379 28.2174 67.6969 29.5691 65.968 30.4113C65.1233 30.7837 64.2783 30.9796 63.355 30.9796ZM74.553 17.3247C74.1407 17.3247 73.7672 17.4224 73.4922 17.6183C72.7262 18.0886 72.3332 19.029 72.3332 20.4003C72.3332 22.9669 73.6297 24.7693 75.4765 24.7693C76.0266 24.7693 76.4588 24.6124 76.832 24.2991C77.4017 23.8286 77.6966 22.8884 77.6966 21.5757C77.6966 19.029 76.4194 17.3245 74.5532 17.3245L74.553 17.3247ZM74.9068 25.7096C71.567 25.7096 70.3687 23.2607 70.3687 20.9686C70.3687 19.3621 71.0169 18.1278 72.3134 17.2462C73.2369 16.6781 74.3372 16.3647 75.3194 16.3647C77.8733 16.3647 79.6611 18.1866 79.6611 20.8119C79.6611 22.5945 78.9539 24.005 77.5982 24.8672C76.95 25.2981 75.8301 25.7096 74.9066 25.7096H74.9068ZM39.8979 17.3245C39.4853 17.3245 39.1121 17.4224 38.8369 17.6183C38.0709 18.0886 37.6779 19.029 37.6779 20.4003C37.6779 22.9669 38.9744 24.7693 40.8212 24.7693C41.3713 24.7693 41.8035 24.6124 42.1769 24.2991C42.7464 23.8286 43.0412 22.8884 43.0412 21.5757C43.0412 19.029 41.7839 17.3245 39.8979 17.3245ZM40.2515 25.7096C36.9117 25.7096 35.7133 23.2607 35.7133 20.9686C35.7133 19.3621 36.3616 18.1278 37.6581 17.2462C38.5816 16.6781 39.6818 16.3647 40.6641 16.3647C43.2181 16.3647 45.0058 18.1866 45.0058 20.8119C45.0058 22.5945 44.2986 24.005 42.9429 24.8672C42.3142 25.2981 41.1944 25.7096 40.2515 25.7096ZM17.7963 25.5136C17.7569 25.455 17.7175 25.2786 17.7373 25.0631C17.7373 24.9062 17.7767 24.8084 17.7963 24.7693C18.2089 24.7103 18.4249 24.6515 18.6606 24.5929C19.0536 24.4948 19.2107 24.2795 19.2303 23.7898C19.2895 22.6143 19.2895 20.3807 19.2697 18.8331V18.7938C19.2697 18.6176 19.2697 18.4019 19.0536 18.2452C18.7392 18.0495 18.366 17.8733 17.8748 17.7357C17.6981 17.6773 17.5802 17.5793 17.5998 17.4619C17.5998 17.3442 17.7177 17.2071 17.9732 17.1678C18.6214 17.109 20.3107 16.6978 20.9788 16.4038C21.0182 16.4428 21.0771 16.5607 21.0771 16.7173L21.0575 16.9326C21.0377 17.1483 21.0182 17.4031 21.0182 17.6576C21.0182 17.7359 21.0969 17.7947 21.1753 17.7947C21.2147 17.7947 21.254 17.7752 21.2932 17.7555C22.5505 16.7759 23.6899 16.4233 24.2792 16.4233C25.2421 16.4233 25.9887 16.874 26.5584 17.8143C26.5976 17.8733 26.637 17.8928 26.6959 17.8928C26.7351 17.8928 26.7939 17.8733 26.8137 17.834C27.9729 16.9524 29.132 16.4233 29.898 16.4233C31.725 16.4233 32.8057 17.7752 32.8057 20.0674C32.8057 20.7138 32.8057 21.5562 32.7861 22.3205C32.7861 23.006 32.7665 23.6329 32.7665 24.0836C32.7665 24.1812 32.9038 24.4948 33.1199 24.5536C33.395 24.6908 33.7684 24.7496 34.2595 24.8279H34.2791C34.3185 24.965 34.2399 25.4743 34.1614 25.5724C34.0434 25.5724 33.8665 25.5724 33.6702 25.5529C33.1729 25.527 32.675 25.5139 32.177 25.5136C30.9591 25.5136 30.3304 25.5332 29.7211 25.5724C29.6821 25.4158 29.6624 24.9455 29.7211 24.8279C30.0749 24.7693 30.2516 24.7103 30.4679 24.6517C30.8609 24.5341 30.9591 24.3577 30.9789 23.8484C30.9789 23.4762 31.0572 20.3024 30.9393 19.5383C30.8215 18.7547 30.232 17.834 28.9353 17.834C28.4442 17.834 27.6782 18.03 26.9316 18.5979C26.8924 18.6371 26.8528 18.735 26.8528 18.7938V18.8136C26.9316 19.2248 26.9316 19.6952 26.9316 20.42V21.6934C26.9316 22.575 26.9118 23.3979 26.9316 24.0246C26.9316 24.4557 27.1871 24.5536 27.4032 24.6322C27.5211 24.6515 27.5994 24.6712 27.6978 24.6908C27.8745 24.73 28.0514 24.7693 28.3265 24.8279C28.3659 24.9065 28.3658 25.161 28.3069 25.3765C28.2871 25.4941 28.2477 25.5527 28.2281 25.5724C27.5603 25.5529 26.8726 25.5332 25.8708 25.5332C25.5761 25.5332 25.0652 25.5529 24.633 25.5529C24.2792 25.5529 23.9454 25.5724 23.7491 25.5724C23.7293 25.5332 23.6899 25.3962 23.6899 25.1805C23.6899 25.0043 23.7293 24.8672 23.7687 24.8279C23.8668 24.8084 23.9454 24.7888 24.0438 24.7888C24.2792 24.7496 24.4759 24.7103 24.6722 24.6712C25.0064 24.5734 25.1242 24.3969 25.1438 23.966C25.2027 22.9864 25.2617 20.185 25.1242 19.4795C24.8885 18.3433 24.2403 17.7752 23.1988 17.7752C22.5899 17.7752 21.8235 18.069 21.1951 18.5395C21.0967 18.6176 21.0182 18.8133 21.0182 18.9898V20.1457C21.0182 21.5562 21.0182 23.3195 21.0377 24.0836C21.0575 24.3184 21.1359 24.5929 21.5879 24.6908C21.6862 24.7103 21.8433 24.7496 22.0398 24.7693L22.3932 24.8279C22.4328 24.9455 22.413 25.4158 22.3345 25.5724C22.138 25.5724 21.9023 25.5529 21.627 25.5529C21.2147 25.5331 20.6841 25.5136 20.0949 25.5136C19.4072 25.5136 18.9161 25.5331 18.5231 25.5529C18.248 25.5136 18.0319 25.5136 17.7963 25.5136Z" fill="#727171"/>
<path fill-rule="evenodd" clip-rule="evenodd" d="M7.46258 30.2157L6.65721 29.9412C6.65721 29.9412 6.75556 25.8469 5.28193 25.5531C4.29987 24.4167 5.43947 -22.6409 8.97559 25.3962C8.97559 25.3962 7.75743 26.0034 7.54135 27.0419C7.30546 28.0607 7.46258 30.2157 7.46258 30.2157Z" fill="white"/>
<path fill-rule="evenodd" clip-rule="evenodd" d="M7.46258 30.2157L6.65721 29.9412C6.65721 29.9412 6.75556 25.8469 5.28193 25.5531C4.29987 24.4167 5.43947 -22.6409 8.97559 25.3962C8.97559 25.3962 7.75743 26.0034 7.54135 27.0419C7.30546 28.0607 7.46258 30.2157 7.46258 30.2157Z" fill="#A6A385"/>
<path fill-rule="evenodd" clip-rule="evenodd" d="M7.89497 26.2583C7.89497 26.2583 14.948 21.6347 13.2975 12.0154C11.7063 5.0217 7.95394 2.72953 7.54136 1.84787C7.08961 1.22096 6.65723 0.124023 6.65723 0.124023L6.95208 19.5776C6.95208 19.5973 6.343 25.5333 7.89518 26.2585" fill="white"/>
<path fill-rule="evenodd" clip-rule="evenodd" d="M7.89497 26.2583C7.89497 26.2583 14.948 21.6347 13.2975 12.0154C11.7063 5.0217 7.95394 2.72953 7.54136 1.84787C7.08961 1.22096 6.65723 0.124023 6.65723 0.124023L6.95208 19.5776C6.95208 19.5973 6.343 25.5333 7.89518 26.2585" fill="#499D4A"/>
<path fill-rule="evenodd" clip-rule="evenodd" d="M6.24472 26.5128C6.24472 26.5128 -0.376168 22.0068 0.0168277 14.0727C0.390024 6.13831 5.06573 2.2397 5.96945 1.53446C6.55894 0.907545 6.57853 0.672321 6.61791 0.0454102C7.03049 0.927076 6.95194 13.2303 7.0107 14.6798C7.1874 20.2632 6.69647 25.4551 6.24472 26.5128Z" fill="white"/>
<path fill-rule="evenodd" clip-rule="evenodd" d="M6.24472 26.5128C6.24472 26.5128 -0.376168 22.0068 0.0168277 14.0727C0.390024 6.13831 5.06573 2.2397 5.96945 1.53446C6.55894 0.907545 6.57853 0.672321 6.61791 0.0454102C7.03049 0.927076 6.95194 13.2303 7.0107 14.6798C7.1874 20.2632 6.69647 25.4551 6.24472 26.5128Z" fill="#58AA50"/>
</svg>
