<svg width="47" height="28" viewBox="0 0 47 28" fill="none" xmlns="http://www.w3.org/2000/svg">
<g clip-path="url(#clip0)">
<path d="M11.3732 7.30268H20.0349V7.99852H12.1674V13.235H19.5657V13.9309H12.1674V19.6801H20.1251V20.3759H11.3732V7.30268ZM20.8107 7.30268H21.7312L25.8093 13.0519L29.9777 7.30268L35.6474 0L26.3327 13.6562L31.1326 20.3759H30.1761L25.8093 14.2604L21.4246 20.3759H20.4861L25.3221 13.6562L20.811 7.30268H20.8107ZM31.4756 7.99852V7.30268H41.3459V7.99852H36.7988V20.3756H36.0047V7.99852H31.4759H31.4756ZM0.537354 7.30268H1.52992L15.2154 28L9.55973 20.3759L1.36729 8.29141L1.33122 20.3759H0.537354V7.30268ZM41.2663 19.47C41.1037 19.47 40.9821 19.343 40.9821 19.179C40.9821 19.0146 41.1037 18.8876 41.266 18.8876C41.4302 18.8876 41.5499 19.0146 41.5499 19.179C41.5499 19.343 41.4302 19.47 41.266 19.47H41.2663ZM42.0462 18.7039H42.4713C42.4772 18.9366 42.6454 19.0927 42.8923 19.0927C43.1684 19.0927 43.3249 18.925 43.3249 18.6101V16.617H43.7574V18.612C43.7574 19.179 43.4331 19.5054 42.896 19.5054C42.3923 19.5054 42.0465 19.1887 42.0465 18.7039H42.0462ZM44.323 18.6788H44.7518C44.7885 18.9463 45.0472 19.1162 45.4201 19.1162C45.7674 19.1162 46.0224 18.9344 46.0224 18.6844C46.0224 18.4696 45.8604 18.3404 45.4913 18.2526L45.1321 18.1648C44.6284 18.0457 44.3983 17.7992 44.3983 17.385C44.3983 16.8826 44.8038 16.5483 45.412 16.5483C45.9779 16.5483 46.3915 16.8826 46.4164 17.3574H45.9953C45.9549 17.0977 45.731 16.9353 45.4064 16.9353C45.0643 16.9353 44.8367 17.1015 44.8367 17.3555C44.8367 17.5568 44.9835 17.6722 45.3467 17.7581L45.6536 17.8343C46.2251 17.9692 46.4608 18.2037 46.4608 18.6277C46.4608 19.167 46.0473 19.5054 45.3871 19.5054C44.7692 19.5054 44.3538 19.1827 44.323 18.6785V18.6788Z" fill="white"/>
</g>
<defs>
<clipPath id="clip0">
<rect width="46" height="28" fill="white" transform="translate(0.5)"/>
</clipPath>
</defs>
</svg>
