<svg width="103" height="63" viewBox="0 0 103 63" fill="none" xmlns="http://www.w3.org/2000/svg">
<g clip-path="url(#clip0)">
<path d="M50.9183 62.8182C50.5697 62.8182 50.2443 62.7255 49.9419 62.5632L46.8501 60.7314C46.3851 60.4762 46.6176 60.3835 46.7572 60.3371C47.3848 60.1285 47.501 60.0819 48.1519 59.7112C48.2217 59.6646 48.3149 59.6879 48.3845 59.7342L50.7558 61.1487C50.8487 61.1951 50.965 61.1951 51.0346 61.1487L60.3104 55.7921C60.4033 55.7458 60.45 55.6529 60.45 55.5371V44.8472C60.45 44.731 60.4033 44.6385 60.3104 44.592L51.0346 39.2586C50.9416 39.2121 50.8254 39.2121 50.7558 39.2586L41.4799 44.592C41.387 44.6383 41.3403 44.7543 41.3403 44.847V55.5369C41.3403 55.6298 41.387 55.7456 41.4799 55.7921L44.014 57.2529C45.3856 57.9486 46.2457 57.137 46.2457 56.3254V45.7745C46.2457 45.6355 46.3619 45.4962 46.5247 45.4962H47.7102C47.8498 45.4962 47.9892 45.6122 47.9892 45.7745V56.3254C47.9892 58.1572 46.9895 59.224 45.246 59.224C44.7113 59.224 44.293 59.224 43.1072 58.6442L40.6663 57.2529C40.0619 56.9052 39.6899 56.2558 39.6899 55.5602V44.8702C39.6899 44.1746 40.0619 43.5252 40.6663 43.1775L49.9419 37.8209C50.5232 37.4962 51.3138 37.4962 51.8949 37.8209L61.1705 43.1775C61.7749 43.5252 62.1471 44.1746 62.1471 44.8702V55.5602C62.1471 56.2558 61.7749 56.9052 61.1705 57.2529L51.8949 62.6096C51.5925 62.7488 51.244 62.8182 50.9185 62.8182H50.9183ZM53.7778 55.4675C49.7096 55.4675 48.8726 53.6124 48.8726 52.0356C48.8726 51.8963 48.9889 51.7573 49.1516 51.7573H50.3605C50.4999 51.7573 50.6162 51.85 50.6162 51.9892C50.8022 53.2181 51.3369 53.8211 53.8011 53.8211C55.7538 53.8211 56.591 53.3805 56.591 52.3369C56.591 51.734 56.3583 51.2936 53.3129 50.9921C50.7789 50.7369 49.1981 50.1805 49.1981 48.1631C49.1981 46.2847 50.7791 45.1716 53.4292 45.1716C56.4047 45.1716 57.8695 46.192 58.0555 48.4179C58.0555 48.4877 58.0322 48.5571 57.9858 48.6268C57.9391 48.6731 57.8695 48.7195 57.7997 48.7195H56.5908C56.4745 48.7195 56.3583 48.6268 56.3352 48.5108C56.0562 47.2356 55.3355 46.818 53.4292 46.818C51.2904 46.818 51.0346 47.5602 51.0346 48.1165C51.0346 48.7891 51.3369 48.9977 54.2195 49.3687C57.079 49.7399 58.4275 50.2732 58.4275 52.2673C58.4041 54.308 56.7304 55.4675 53.7778 55.4675Z" fill="#539E43"/>
<path d="M22.1384 21.0091C22.1384 20.5918 21.9058 20.1974 21.5339 19.9887L11.677 14.3307C11.5141 14.2379 11.3282 14.1915 11.1424 14.1682H11.0492C10.8634 14.1682 10.6773 14.2379 10.5146 14.3307L0.657664 19.9887C0.285545 20.1974 0.0532227 20.5916 0.0532227 21.0091L0.0765555 36.2208C0.0765555 36.4295 0.192817 36.6382 0.378676 36.7311C0.564735 36.847 0.797058 36.847 0.959985 36.7311L6.81834 33.3919C7.19026 33.1832 7.42278 32.7889 7.42278 32.3716V25.2526C7.42278 24.8353 7.6551 24.441 8.02722 24.2324L10.5146 22.7946C10.7006 22.6786 10.9098 22.6321 11.119 22.6321C11.3282 22.6321 11.5374 22.6786 11.7003 22.7946L14.1877 24.2324C14.5598 24.441 14.7921 24.8351 14.7921 25.2526V32.3716C14.7921 32.7889 15.0247 33.1832 15.3966 33.3919L21.2549 36.7311C21.441 36.847 21.6733 36.847 21.8594 36.7311C22.0454 36.6382 22.1617 36.4295 22.1617 36.2208L22.1384 21.0091ZM69.5167 0.0696712C69.3309 -0.0232237 69.0983 -0.0232237 68.9354 0.0696712C68.7495 0.185639 68.6333 0.371028 68.6333 0.57969V15.6525C68.6333 15.7916 68.5637 15.9306 68.4241 16.0235C68.2847 16.0929 68.1451 16.0929 68.0057 16.0235L65.5415 14.609C65.3608 14.5064 65.1565 14.4525 64.9486 14.4525C64.7407 14.4525 64.5364 14.5064 64.3557 14.609L54.4988 20.2903C54.1269 20.4989 53.8944 20.8932 53.8944 21.3105V32.6497C53.8944 33.067 54.1269 33.4615 54.4988 33.6701L64.3557 39.3514C64.5364 39.454 64.7407 39.5079 64.9486 39.5079C65.1565 39.5079 65.3608 39.454 65.5415 39.3514L75.3984 33.6701C75.7703 33.4615 76.0028 33.0672 76.0028 32.6497V4.38276C76.0028 3.94216 75.7703 3.54811 75.3984 3.33925L69.5169 0.0696712H69.5167ZM68.6101 28.9164C68.6101 29.0324 68.5637 29.1251 68.4706 29.1715L65.0998 31.1192C65.0527 31.1422 65.001 31.1541 64.9486 31.1541C64.8962 31.1541 64.8445 31.1422 64.7974 31.1192L61.4267 29.1715C61.3335 29.1251 61.2871 29.0091 61.2871 28.9164V25.0207C61.2871 24.9047 61.3335 24.812 61.4267 24.7657L64.7974 22.8177C64.8445 22.7948 64.8962 22.7829 64.9486 22.7829C65.001 22.7829 65.0527 22.7948 65.0998 22.8177L68.4706 24.7657C68.5637 24.8118 68.6101 24.928 68.6101 25.0207V28.9164ZM102.319 24.928C102.691 24.7193 102.9 24.3251 102.9 23.9075V21.1482C102.9 20.7309 102.668 20.3366 102.319 20.1279L92.5317 14.47C92.3511 14.3674 92.1468 14.3135 91.939 14.3135C91.7311 14.3135 91.5268 14.3674 91.3462 14.47L81.4893 20.151C81.1171 20.3597 80.8848 20.7539 80.8848 21.1715V32.5107C80.8848 32.928 81.1171 33.3222 81.4893 33.5309L91.2764 39.0962C91.6485 39.3048 92.09 39.3048 92.4388 39.0962L98.3668 35.8037C98.5528 35.7108 98.6691 35.5022 98.6691 35.2935C98.6691 35.0848 98.5528 34.8762 98.3668 34.7833L88.4634 29.102C88.2775 28.9863 88.1613 28.8007 88.1613 28.592V25.0442C88.1613 24.8355 88.2775 24.6268 88.4634 24.5339L91.5554 22.7715C91.6459 22.7147 91.7507 22.6846 91.8576 22.6846C91.9645 22.6846 92.0693 22.7147 92.1598 22.7715L95.2516 24.5339C95.4377 24.6499 95.5539 24.8353 95.5539 25.0442V27.8268C95.5539 28.0354 95.6702 28.2441 95.8561 28.3368C96.0421 28.4528 96.2745 28.4528 96.4605 28.3368L102.319 24.928Z" fill="#828282"/>
<path d="M91.788 24.3948C91.8225 24.3722 91.8629 24.3601 91.9042 24.3601C91.9455 24.3601 91.9858 24.3722 92.0203 24.3948L93.9035 25.4847C93.9733 25.5308 94.0197 25.6005 94.0197 25.6934V27.8731C94.0197 27.9658 93.9733 28.0354 93.9035 28.0817L92.0203 29.1716C91.9858 29.1943 91.9455 29.2063 91.9042 29.2063C91.8629 29.2063 91.8225 29.1943 91.788 29.1716L89.9048 28.0817C89.835 28.0354 89.7886 27.9658 89.7886 27.8731V25.6934C89.7886 25.6005 89.835 25.5308 89.9048 25.4847L91.788 24.3948Z" fill="#539E43"/>
<mask id="mask0" mask-type="alpha" maskUnits="userSpaceOnUse" x="27" y="14" width="22" height="26">
<path d="M38.6209 14.5164C38.4402 14.4138 38.236 14.3599 38.0281 14.3599C37.8202 14.3599 37.616 14.4138 37.4353 14.5164L27.6482 20.1509C27.2761 20.3595 27.0669 20.7538 27.0669 21.1711V32.4641C27.0669 32.8815 27.2994 33.2757 27.6482 33.4844L37.4353 39.1193C37.616 39.2218 37.8202 39.2758 38.0281 39.2758C38.236 39.2758 38.4402 39.2218 38.6209 39.1193L48.4082 33.4844C48.7801 33.2757 48.9895 32.8815 48.9895 32.4641V21.1713C48.9895 20.754 48.7568 20.3597 48.4082 20.1511L38.6209 14.5164Z" fill="white"/>
</mask>
<g mask="url(#mask0)">
<path d="M38.6209 14.5164C38.4402 14.4138 38.236 14.3599 38.0281 14.3599C37.8202 14.3599 37.616 14.4138 37.4353 14.5164L27.6482 20.1509C27.2761 20.3595 27.0669 20.7538 27.0669 21.1711V32.4641C27.0669 32.8815 27.2994 33.2757 27.6482 33.4844L37.4353 39.1193C37.616 39.2218 37.8202 39.2758 38.0281 39.2758C38.236 39.2758 38.4402 39.2218 38.6209 39.1193L48.4082 33.4844C48.7801 33.2757 48.9895 32.8815 48.9895 32.4641V21.1713C48.9895 20.754 48.7568 20.3597 48.4082 20.1511L38.6209 14.5164Z" fill="url(#paint0_linear)"/>
<path d="M48.4312 20.151L38.5976 14.5164C38.5009 14.4677 38.3997 14.4288 38.2952 14.4004L27.2759 33.2298C27.3672 33.3409 27.4774 33.4351 27.6015 33.508L37.4352 39.1429C37.7141 39.3053 38.0396 39.3516 38.3417 39.2587L48.687 20.3832C48.6172 20.2905 48.5241 20.2207 48.4312 20.1512V20.151Z" fill="url(#paint1_linear)"/>
<path fill-rule="evenodd" clip-rule="evenodd" d="M48.4542 33.4846C48.7332 33.3222 48.9424 33.044 49.0355 32.7426L38.2482 14.3771C37.9693 14.3307 37.6669 14.3538 37.4115 14.5161L27.6475 20.1279L38.1784 39.2818C38.3316 39.2568 38.4804 39.2099 38.6202 39.1427L48.454 33.4848L48.4542 33.4846Z" fill="url(#paint2_linear)"/>
<path fill-rule="evenodd" clip-rule="evenodd" d="M48.4543 33.4845L38.6439 39.1194C38.5054 39.1898 38.3561 39.2368 38.2021 39.2584L38.3882 39.6063L49.268 33.3224V33.1831L48.989 32.7192C48.9425 33.0439 48.7333 33.3222 48.4543 33.4845Z" fill="url(#paint3_linear)"/>
<path fill-rule="evenodd" clip-rule="evenodd" d="M48.4543 33.4845L38.6439 39.1194C38.5054 39.1898 38.3561 39.2368 38.2021 39.2584L38.3882 39.6063L49.268 33.3224V33.1831L48.989 32.7192C48.9425 33.0439 48.7333 33.3222 48.4543 33.4845Z" fill="url(#paint4_linear)"/>
</g>
</g>
<defs>
<linearGradient id="paint0_linear" x1="42.0155" y1="18.7169" x2="31.3264" y2="35.5551" gradientUnits="userSpaceOnUse">
<stop stop-color="#41873F"/>
<stop offset="0.3288" stop-color="#418B3D"/>
<stop offset="0.6352" stop-color="#419637"/>
<stop offset="0.9319" stop-color="#3FA92D"/>
<stop offset="1" stop-color="#3FAE2A"/>
</linearGradient>
<linearGradient id="paint1_linear" x1="36.542" y1="28.1406" x2="63.3779" y2="13.5236" gradientUnits="userSpaceOnUse">
<stop offset="0.1376" stop-color="#41873F"/>
<stop offset="0.4032" stop-color="#54A044"/>
<stop offset="0.7136" stop-color="#66B848"/>
<stop offset="0.9081" stop-color="#6CC04A"/>
</linearGradient>
<linearGradient id="paint2_linear" x1="26.7087" y1="26.8181" x2="49.3561" y2="26.8181" gradientUnits="userSpaceOnUse">
<stop offset="0.09192" stop-color="#6CC04A"/>
<stop offset="0.2864" stop-color="#66B848"/>
<stop offset="0.5968" stop-color="#54A044"/>
<stop offset="0.8624" stop-color="#41873F"/>
</linearGradient>
<linearGradient id="paint3_linear" x1="26.7091" y1="36.1817" x2="49.3562" y2="36.1817" gradientUnits="userSpaceOnUse">
<stop offset="0.09192" stop-color="#6CC04A"/>
<stop offset="0.2864" stop-color="#66B848"/>
<stop offset="0.5968" stop-color="#54A044"/>
<stop offset="0.8624" stop-color="#41873F"/>
</linearGradient>
<linearGradient id="paint4_linear" x1="52.6556" y1="18.1827" x2="46.9461" y2="48.1759" gradientUnits="userSpaceOnUse">
<stop stop-color="#41873F"/>
<stop offset="0.3288" stop-color="#418B3D"/>
<stop offset="0.6352" stop-color="#419637"/>
<stop offset="0.9319" stop-color="#3FA92D"/>
<stop offset="1" stop-color="#3FAE2A"/>
</linearGradient>
<clipPath id="clip0">
<rect width="103" height="63" fill="white"/>
</clipPath>
</defs>
</svg>
