<svg width="66" height="60" viewBox="0 0 66 60" fill="none" xmlns="http://www.w3.org/2000/svg">
<path d="M65.9999 30.0066C65.9999 25.6595 60.5603 21.5399 52.2205 18.9852C54.145 10.4784 53.2897 3.71047 49.5207 1.54365C48.652 1.03538 47.6362 0.794625 46.5269 0.794625V3.77735C47.1417 3.77735 47.6362 3.89772 48.0506 4.12511C49.8682 5.16839 50.6568 9.14089 50.042 14.2503C49.8949 15.5076 49.6544 16.8318 49.3603 18.1827C46.7408 17.5407 43.8806 17.0458 40.8735 16.7248C39.0692 14.2503 37.1981 12.0032 35.3136 10.037C39.6706 5.98429 43.7604 3.76397 46.5403 3.76397V0.78125C42.8649 0.78125 38.0535 3.40283 33.1885 7.95048C28.3236 3.42958 23.5122 0.834752 19.8368 0.834752V3.81747C22.6034 3.81747 26.7065 6.02442 31.0635 10.0504C29.1924 12.0166 27.3213 14.2503 25.5437 16.7248C22.5232 17.0458 19.6631 17.5407 17.0435 18.1961C16.7361 16.8585 16.5089 15.5611 16.3485 14.3172C15.7203 9.20777 16.4955 5.23527 18.2998 4.17861C18.7008 3.93785 19.222 3.83085 19.8368 3.83085V0.848127C18.7141 0.848127 17.6984 1.08888 16.8163 1.59715C13.0607 3.76397 12.2187 10.5186 14.1566 18.9986C5.84353 21.5667 0.430664 25.6729 0.430664 30.0066C0.430664 34.3536 5.87026 38.4732 14.2101 41.0279C12.2855 49.5347 13.1409 56.3026 16.9098 58.4695C17.7786 58.9777 18.7943 59.2185 19.917 59.2185C23.5924 59.2185 28.4038 56.5969 33.2687 52.0492C38.1336 56.5701 42.9451 59.165 46.6205 59.165C47.7432 59.165 48.7589 58.9242 49.641 58.416C53.3966 56.2491 54.2386 49.4945 52.3007 41.0145C60.587 38.4598 65.9999 34.3402 65.9999 30.0066ZM48.5985 21.0851C48.104 22.8106 47.4892 24.5895 46.7942 26.3684C46.2463 25.2984 45.6716 24.2284 45.0434 23.1583C44.4286 22.0883 43.7737 21.045 43.1188 20.0285C45.0167 20.3094 46.8477 20.6571 48.5985 21.0851ZM42.4773 35.33C41.4348 37.1357 40.3656 38.8477 39.2563 40.4394C37.2649 40.6133 35.2468 40.7069 33.2153 40.7069C31.1971 40.7069 29.179 40.6133 27.201 40.4528C26.0917 38.8611 25.0091 37.1624 23.9666 35.3701C22.9509 33.6179 22.0287 31.839 21.1867 30.0467C22.0153 28.2544 22.9509 26.4621 23.9533 24.7099C24.9957 22.9042 26.0649 21.1921 27.1742 19.6005C29.1657 19.4266 31.1838 19.333 33.2153 19.333C35.2334 19.333 37.2515 19.4266 39.2296 19.5871C40.3389 21.1788 41.4215 22.8775 42.4639 24.6698C43.4797 26.4219 44.4019 28.2009 45.2439 29.9932C44.4019 31.7855 43.4797 33.5778 42.4773 35.33ZM46.7942 33.5912C47.5159 35.3835 48.1307 37.1758 48.6386 38.9146C46.8878 39.3426 45.0434 39.7037 43.1322 39.9846C43.7871 38.9547 44.442 37.8981 45.0568 36.8146C45.6716 35.7446 46.2463 34.6612 46.7942 33.5912ZM33.242 47.8627C31.9991 46.5787 30.7561 45.1475 29.5265 43.5826C30.7294 43.6361 31.959 43.6762 33.2019 43.6762C34.4582 43.6762 35.7012 43.6495 36.9174 43.5826C35.7146 45.1475 34.4716 46.5787 33.242 47.8627ZM23.2984 39.9846C21.4005 39.7037 19.5695 39.356 17.8187 38.928C18.3132 37.2025 18.928 35.4236 19.623 33.6447C20.1709 34.7147 20.7456 35.7847 21.3738 36.8548C22.002 37.9248 22.6435 38.9681 23.2984 39.9846ZM33.1752 12.1504C34.4181 13.4344 35.6611 14.8656 36.8907 16.4305C35.6878 16.377 34.4582 16.3369 33.2153 16.3369C31.959 16.3369 30.716 16.3636 29.4998 16.4305C30.7026 14.8656 31.9456 13.4344 33.1752 12.1504ZM23.285 20.0285C22.6301 21.0584 21.9752 22.1151 21.3604 23.1985C20.7456 24.2685 20.1709 25.3385 19.623 26.4086C18.9012 24.6163 18.2865 22.8239 17.7786 21.0851C19.5294 20.6705 21.3738 20.3094 23.285 20.0285ZM11.1896 36.7745C6.45833 34.7548 3.39772 32.1065 3.39772 30.0066C3.39772 27.9066 6.45833 25.2449 11.1896 23.2386C12.339 22.7437 13.5953 22.3023 14.8917 21.8877C15.6535 24.5093 16.6559 27.2378 17.8989 30.0333C16.6693 32.8154 15.6803 35.5306 14.9318 38.1388C13.6087 37.7242 12.3523 37.2694 11.1896 36.7745ZM18.38 55.888C16.5624 54.8447 15.7738 50.8722 16.3886 45.7628C16.5356 44.5055 16.7762 43.1813 17.0702 41.8304C19.6898 42.4724 22.5499 42.9673 25.5571 43.2883C27.3614 45.7628 29.2325 48.0099 31.117 49.9761C26.7599 54.0288 22.6702 56.2491 19.8903 56.2491C19.2888 56.2358 18.781 56.1154 18.38 55.888ZM50.0821 45.6959C50.7102 50.8053 49.935 54.7778 48.1307 55.8345C47.7298 56.0753 47.2085 56.1823 46.5938 56.1823C43.8272 56.1823 39.7241 53.9753 35.3671 49.9493C37.2382 47.9831 39.1093 45.7494 40.8869 43.275C43.9074 42.954 46.7675 42.4591 49.3871 41.8037C49.6945 43.1546 49.935 44.452 50.0821 45.6959ZM55.2276 36.7745C54.0782 37.2694 52.8219 37.7108 51.5255 38.1254C50.7637 35.5039 49.7613 32.7753 48.5183 29.9798C49.7479 27.1977 50.7369 24.4825 51.4854 21.8743C52.8085 22.2889 54.0648 22.7437 55.241 23.2386C59.9722 25.2583 63.0328 27.9066 63.0328 30.0066C63.0195 32.1065 59.9589 34.7682 55.2276 36.7745Z" fill="#61DAFB"/>
<path d="M33.2021 36.1192C36.5754 36.1192 39.31 33.3825 39.31 30.0066C39.31 26.6307 36.5754 23.894 33.2021 23.894C29.8288 23.894 27.0942 26.6307 27.0942 30.0066C27.0942 33.3825 29.8288 36.1192 33.2021 36.1192Z" fill="#61DAFB"/>
</svg>
