<svg width="33" height="31" viewBox="0 0 33 31" fill="none" xmlns="http://www.w3.org/2000/svg">
<g clip-path="url(#clip0)">
<path d="M22.8656 21.5638C24.0834 21.4396 25.0073 20.405 24.9652 19.1633C24.9233 17.9218 23.8734 16.9284 22.6136 16.9284H22.5297C21.2277 16.9699 20.2199 18.0459 20.2619 19.3288C20.304 19.9497 20.5559 20.4877 20.9338 20.8602C19.506 23.6332 17.3224 25.6611 14.0468 27.358C11.8211 28.5168 9.51151 28.9307 7.20189 28.6411C5.31212 28.3927 3.84232 27.565 2.91832 26.1991C1.57459 24.1712 1.44865 21.9776 2.58252 19.7841C3.38045 18.2114 4.64013 17.0526 5.43806 16.4731C5.27009 15.9351 5.01808 15.0246 4.89214 14.3625C-1.19703 18.7081 -0.567062 24.5851 1.28069 27.358C2.66643 29.4274 5.48008 30.7104 8.58764 30.7104C9.42746 30.7104 10.2673 30.6276 11.1072 30.4208C16.4825 29.386 20.556 26.2405 22.8656 21.5638ZM30.2566 16.4318C27.065 12.7483 22.3617 10.7204 16.9864 10.7204H16.3146C15.9366 9.97545 15.1387 9.47873 14.2568 9.47873H14.1728C12.8711 9.52015 11.8633 10.5962 11.9052 11.8793C11.9472 13.1208 12.997 14.1141 14.2568 14.1141H14.3407C15.2646 14.0727 16.0625 13.4933 16.3985 12.7069H17.1544C20.346 12.7069 23.3695 13.6174 26.0992 15.3971C28.1989 16.7629 29.7107 18.5426 30.5505 20.6946C31.2644 22.4329 31.2224 24.1298 30.4665 25.5784C29.2907 27.7719 27.317 28.9721 24.7134 28.9721C23.0336 28.9721 21.4378 28.4754 20.5979 28.1029C20.136 28.5168 19.296 29.179 18.7081 29.593C20.514 30.4206 22.3617 30.8759 24.1254 30.8759C28.1568 30.8759 31.1385 28.6824 32.2723 26.4889C33.4901 24.0884 33.406 19.9497 30.2566 16.4318ZM8.92357 22.2673C8.96559 23.5089 10.0154 24.5021 11.2752 24.5021H11.3593C12.6611 24.4608 13.6689 23.3847 13.6269 22.1017C13.585 20.86 12.535 19.8669 11.2752 19.8669H11.1913C11.1072 19.8669 10.9812 19.8669 10.8974 19.9081C9.17558 17.0938 8.46169 14.0313 8.71371 10.7203C8.88154 8.23705 9.7215 6.08488 11.1913 4.30519C12.4091 2.77386 14.7607 2.0289 16.3566 1.98761C20.8079 1.90478 22.6975 7.36785 22.8236 9.56143C23.3695 9.68555 24.2934 9.97533 24.9233 10.1823C24.4193 3.47765 20.2199 0.00109863 16.1886 0.00109863C12.4091 0.00109863 8.92357 2.69128 7.53769 6.66443C5.60602 11.962 6.86583 17.0526 9.21747 21.0671C9.00761 21.3568 8.88154 21.8121 8.92357 22.2674V22.2673Z" fill="#764ABC"/>
</g>
<defs>
<clipPath id="clip0">
<rect width="33" height="31" fill="white"/>
</clipPath>
</defs>
</svg>
