<svg width="70" height="70" viewBox="0 0 70 70" fill="none" xmlns="http://www.w3.org/2000/svg">
<path fill-rule="evenodd" clip-rule="evenodd" d="M70 0H0V70H70V0ZM19 39.6692V37.027L19.0483 37.0432V34.3847L30.316 34.3361C36.5132 34.3361 41.6158 34.3523 41.6158 34.401C41.6802 34.4334 41.6802 35.6167 41.6802 37.0756V39.6692H33.3099V63.6601H27.3703V39.6692H19ZM60.6421 36.6379C59.5153 35.4546 58.2598 34.7089 56.6179 34.3199L56.6501 34.2875C55.5394 33.9957 52.8835 33.8984 51.7567 34.1254C48.2798 34.7738 45.8492 37.0432 45.1571 40.2852C44.9317 41.2092 45.0122 43.511 45.2537 44.4512C45.5756 45.5373 46.2677 46.8503 47.0243 47.6932C48.3442 49.0873 49.7607 49.995 53.0927 51.4215C55.9901 52.7183 57.0203 53.3019 57.5354 54.0151C57.9056 54.5825 58.0183 54.9229 58.0183 55.6685C58.0183 56.4791 57.7608 57.0626 57.1652 57.6138C55.7809 58.8781 52.9801 59.024 50.8875 57.938C50.1953 57.5489 49.0042 56.4142 48.473 55.5713L48.0545 55.0039L46.2356 56.0738L43.8211 57.4841L43.2094 57.8731C43.145 57.9866 44.2879 59.7211 44.8834 60.3695C46.3965 62.0391 48.8593 63.3359 51.4348 63.8222C52.642 64.0329 55.2175 64.0654 56.3443 63.8708C59.9338 63.2711 62.4449 61.4393 63.4751 58.7323C64.3926 56.2521 64.0868 52.9453 62.7185 50.838C61.5113 48.9576 59.5153 47.6446 54.9117 45.6507C52.4167 44.5485 51.6118 44.0135 51.1772 43.122C50.9841 42.7005 50.8875 42.4087 50.8875 41.89C50.8875 40.1879 52.1752 39.1667 54.1068 39.2964C55.4428 39.3937 56.296 39.9124 57.133 41.1119C57.3905 41.5334 57.6481 41.8089 57.7125 41.7603C59.4026 40.7067 62.1873 38.8101 62.1873 38.7128C62.123 38.4211 61.2376 37.2863 60.6421 36.6379Z" fill="#3779C6"/>
</svg>
